<svg xmlns="http://www.w3.org/2000/svg" viewBox="0 0 200 56" fill="currentColor">
  <!-- 中国电信牛角形 mark -->
  <g transform="translate(4, 4)">
    <path d="M24,4 C12.954,4 4,12.954 4,24 C4,35.046 12.954,44 24,44 C27.023,44 29.932,43.328 32.648,42.062 C31.397,40.377 30.311,38.564 29.414,36.646 C27.775,37.498 25.936,37.96 24,37.96 C16.268,37.96 10.04,31.732 10.04,24 C10.04,16.268 16.268,10.04 24,10.04 C28.534,10.04 32.761,12.213 35.664,15.682 C35.363,11.745 33.498,8.021 30.584,5.474 C28.547,4.521 26.326,4 24,4 Z M33.792,18.552 C32.827,17.443 31.638,16.514 30.277,15.815 C30.227,17.117 30.094,18.412 29.879,19.685 C32.45,20.677 34.099,22.204 34.099,24 C34.099,25.796 32.45,27.323 29.879,28.315 C30.094,29.588 30.227,30.883 30.277,32.185 C31.638,31.486 32.827,30.557 33.792,29.448 C35.266,27.802 36.12,25.968 36.12,24 C36.12,22.032 35.266,20.198 33.792,18.552 Z"/>
  </g>
  <!-- 中国电信文字 -->
  <g transform="translate(56, 12)" fill="currentColor">
    <!-- 中 -->
    <path d="M7,4 L7,28 L21,28 L21,4 L25,4 L25,32 L3,32 L3,4 L7,4 Z M13,0 L15,0 L15,6 L13,6 L13,0 Z"/>
    <!-- 国 (简化矩形版本) -->
    <path d="M34,2 L58,2 L58,30 L34,30 L34,2 Z M38,6 L38,26 L54,26 L54,6 L38,6 Z M44,10 L44,22 L48,22 L48,10 L44,10 Z M40,14 L52,14 L52,18 L40,18 L40,14 Z"/>
    <!-- 电 -->
    <path d="M66,4 L90,4 L90,8 L70,8 L70,14 L86,14 L86,18 L70,18 L70,26 L90,26 L90,30 L66,30 L66,4 Z M74,18 L78,18 L78,14 L74,14 L74,18 Z"/>
    <!-- 信 -->
    <path d="M100,4 L104,4 L104,10 L114,10 L114,4 L118,4 L118,14 L100,14 L100,4 Z M100,18 L118,18 L118,22 L109,22 L109,30 L100,30 L100,18 Z M109,22 L118,22 L118,26 L109,26 L109,22 Z"/>
  </g>
  <!-- CHINA TELECOM 英文小字 -->
  <g transform="translate(56, 44)" fill="currentColor" font-family="Arial, sans-serif" font-size="8" font-weight="500" letter-spacing="1.5">
    <text x="0" y="8">CHINA TELECOM</text>
  </g>
</svg>
